{
  "accessors": [
    {
      "bufferView": 2,
      "componentType": 5126,
      "count": 230,
      "max": [
        2.3781630992889404,
        0.72730302810668945,
        3.2275140285491943
      ],
      "min": [
        1.3894660472869873,
        -0.69377899169921875,
        2.3414549827575684
      ],
      "type": "VEC3"
    },
    {
      "bufferView": 2,
      "byteOffset": 2760,
      "componentType": 5126,
      "count": 230,
      "max": [
        0.89442718029022217,
        0.89442718029022217,
        1
      ],
      "min": [
        -0.89442718029022217,
        -0.89442718029022217,
        -0.71916377544403076
      ],
      "type": "VEC3"
    },
    {
      "bufferView": 3,
      "componentType": 5126,
      "count": 230,
      "max": [
        1,
        1,
        0.94458997249603271,
        1
      ],
      "min": [
        -1,
        -1,
        -0.99704504013061523,
        1
      ],
      "type": "VEC4"
    },
    {
      "bufferView": 1,
      "componentType": 5126,
      "count": 230,
      "max": [
        0.98820698261260986,
        0.99656397104263306
      ],
      "min": [
        0.0040339999832212925,
        0.0095239998772740364
      ],
      "type": "VEC2"
    },
    {
      "bufferView": 0,
      "componentType": 5125,
      "count": 636,
      "max": [
        229
      ],
      "min": [
        0
      ],
      "type": "SCALAR"
    },
    {
      "bufferView": 2,
      "byteOffset": 5520,
      "componentType": 5126,
      "count": 208,
      "max": [
        0.9535520076751709,
        0.76850199699401855,
        4.9079618453979492
      ],
      "min": [
        -0.74935197830200195,
        -0.72334402799606323,
        0.14136099815368652
      ],
      "type": "VEC3"
    },
    {
      "bufferView": 2,
      "byteOffset": 8016,
      "componentType": 5126,
      "count": 208,
      "max": [
        0.57735025882720947,
        0.57735025882720947,
        0.57735025882720947
      ],
      "min": [
        -0.57735025882720947,
        -0.57735025882720947,
        -0.57735025882720947
      ],
      "type": "VEC3"
    },
    {
      "bufferView": 3,
      "byteOffset": 3680,
      "componentType": 5126,
      "count": 208,
      "max": [
        0.81649667024612427,
        0.81649667024612427,
        0.77152007818222046,
        1
      ],
      "min": [
        -0.81649667024612427,
        -0.40824833512306213,
        -0.40824833512306213,
        1
      ],
      "type": "VEC4"
    },
    {
      "bufferView": 1,
      "byteOffset": 1840,
      "componentType": 5126,
      "count": 208,
      "max": [
        0.84360897541046143,
        0.99386799335479736
      ],
      "min": [
        0.01056199986487627,
        0.023476999253034592
      ],
      "type": "VEC2"
    },
    {
      "bufferView": 0,
      "byteOffset": 2544,
      "componentType": 5125,
      "count": 468,
      "max": [
        207
      ],
      "min": [
        0
      ],
      "type": "SCALAR"
    },
    {
      "bufferView": 2,
      "byteOffset": 10512,
      "componentType": 5126,
      "count": 469,
      "max": [
        2.0402979850769043,
        0.88272297382354736,
        5.1543879508972168
      ],
      "min": [
        -1,
        -0.84171700477600098,
        0.0025679999962449074
      ],
      "type": "VEC3"
    },
    {
      "bufferView": 2,
      "byteOffset": 16140,
      "componentType": 5126,
      "count": 469,
      "max": [
        0.87156140804290771,
        1,
        0.7071068286895752
      ],
      "min": [
        -0.7071068286895752,
        -1,
        -0.89442718029022217
      ],
      "type": "VEC3"
    },
    {
      "bufferView": 3,
      "byteOffset": 7008,
      "componentType": 5126,
      "count": 469,
      "max": [
        1,
        0.88529211282730103,
        1,
        1
      ],
      "min": [
        -0.99960595369338989,
        -0.92399191856384277,
        -0.96370691061019897,
        -1
      ],
      "type": "VEC4"
    },
    {
      "bufferView": 1,
      "byteOffset": 3504,
      "componentType": 5126,
      "count": 469,
      "max": [
        0.9800180196762085,
        0.99170798063278198
      ],
      "min": [
        0.0028729999903589487,
        0.0072820000350475311
      ],
      "type": "VEC2"
    },
    {
      "bufferView": 0,
      "byteOffset": 4416,
      "componentType": 5125,
      "count": 2049,
      "max": [
        468
      ],
      "min": [
        0
      ],
      "type": "SCALAR"
    }
  ],
  "asset": {
    "extras": {
      "author": "Ridellco (https://sketchfab.com/ridellco)",
      "license": "CC-BY-4.0 (http://creativecommons.org/licenses/by/4.0/)",
      "source": "https://sketchfab.com/models/24ebe6f197c44e0a93f4010045c4a997",
      "title": "Server Rack and Console v3"
    },
    "generator": "Sketchfab-3.18.2",
    "version": "2.0"
  },
  "bufferViews": [
    {
      "buffer": 0,
      "byteLength": 12612,
      "byteOffset": 0,
      "name": "floatBufferViews",
      "target": 34963
    },
    {
      "buffer": 0,
      "byteLength": 7256,
      "byteOffset": 12612,
      "byteStride": 8,
      "name": "floatBufferViews",
      "target": 34962
    },
    {
      "buffer": 0,
      "byteLength": 21768,
      "byteOffset": 19868,
      "byteStride": 12,
      "name": "floatBufferViews",
      "target": 34962
    },
    {
      "buffer": 0,
      "byteLength": 14512,
      "byteOffset": 41636,
      "byteStride": 16,
      "name": "floatBufferViews",
      "target": 34962
    }
  ],
  "buffers": [
    {
      "byteLength": 56148,
      "uri": "scene.bin"
    }
  ],
  "images": [
    {
      "uri": "textures/Cube1_auv_baseColor.png"
    },
    {
      "uri": "textures/Cube12_auv_baseColor.png"
    },
    {
      "uri": "textures/console_auv_baseColor.png"
    }
  ],
  "materials": [
    {
      "doubleSided": true,
      "emissiveFactor": [
        0,
        0,
        0
      ],
      "name": "Cube12_auv",
      "pbrMetallicRoughness": {
        "baseColorFactor": [
          1,
          1,
          1,
          1
        ],
        "baseColorTexture": {
          "index": 1,
          "texCoord": 0
        },
        "metallicFactor": 0,
        "roughnessFactor": 0.59999999999999998
      }
    },
    {
      "doubleSided": true,
      "emissiveFactor": [
        0,
        0,
        0
      ],
      "name": "Cube1_auv",
      "pbrMetallicRoughness": {
        "baseColorFactor": [
          1,
          1,
          1,
          1
        ],
        "baseColorTexture": {
          "index": 0,
          "texCoord": 0
        },
        "metallicFactor": 0,
        "roughnessFactor": 0.59999999999999998
      }
    },
    {
      "doubleSided": true,
      "emissiveFactor": [
        0,
        0,
        0
      ],
      "name": "console_auv",
      "pbrMetallicRoughness": {
        "baseColorFactor": [
          1,
          1,
          1,
          1
        ],
        "baseColorTexture": {
          "index": 2,
          "texCoord": 0
        },
        "metallicFactor": 0,
        "roughnessFactor": 0.59999999999999998
      }
    }
  ],
  "meshes": [
    {
      "primitives": [
        {
          "attributes": {
            "NORMAL": 1,
            "POSITION": 0,
            "TANGENT": 2,
            "TEXCOORD_0": 3
          },
          "indices": 4,
          "material": 2,
          "mode": 4
        }
      ]
    },
    {
      "primitives": [
        {
          "attributes": {
            "NORMAL": 6,
            "POSITION": 5,
            "TANGENT": 7,
            "TEXCOORD_0": 8
          },
          "indices": 9,
          "material": 0,
          "mode": 4
        }
      ]
    },
    {
      "primitives": [
        {
          "attributes": {
            "NORMAL": 11,
            "POSITION": 10,
            "TANGENT": 12,
            "TEXCOORD_0": 13
          },
          "indices": 14,
          "material": 1,
          "mode": 4
        }
      ]
    }
  ],
  "nodes": [
    {
      "children": [
        1
      ],
      "name": "RootNode (gltf orientation matrix)",
      "rotation": [
        -0.70710678118654746,
        -0,
        -0,
        0.70710678118654757
      ]
    },
    {
      "children": [
        2
      ],
      "name": "RootNode (model correction matrix)"
    },
    {
      "children": [
        3,
        4,
        5
      ],
      "name": "ServerV3+console.obj.cleaner"
    },
    {
      "mesh": 0,
      "name": ""
    },
    {
      "mesh": 1,
      "name": ""
    },
    {
      "mesh": 2,
      "name": ""
    }
  ],
  "samplers": [
    {
      "magFilter": 9729,
      "minFilter": 9987,
      "wrapS": 10497,
      "wrapT": 10497
    }
  ],
  "scene": 0,
  "scenes": [
    {
      "name": "OSG_Scene",
      "nodes": [
        0
      ]
    }
  ],
  "textures": [
    {
      "sampler": 0,
      "source": 0
    },
    {
      "sampler": 0,
      "source": 1
    },
    {
      "sampler": 0,
      "source": 2
    }
  ]
}

