{
  "accessors": [
    {
      "bufferView": 1,
      "componentType": 5126,
      "count": 1048,
      "max": [
        16.472219467163086,
        1.1002230644226074,
        5.7525954246520996
      ],
      "min": [
        -11.029474258422852,
        -63.630813598632812,
        -5.7811613082885742
      ],
      "type": "VEC3"
    },
    {
      "bufferView": 1,
      "byteOffset": 12576,
      "componentType": 5126,
      "count": 1048,
      "max": [
        1,
        1,
        1
      ],
      "min": [
        -1,
        -1,
        -1
      ],
      "type": "VEC3"
    },
    {
      "bufferView": 0,
      "componentType": 5125,
      "count": 1950,
      "max": [
        1047
      ],
      "min": [
        0
      ],
      "type": "SCALAR"
    },
    {
      "bufferView": 1,
      "byteOffset": 25152,
      "componentType": 5126,
      "count": 20,
      "max": [
        15.89057445526123,
        -0.77919960021972656,
        3.8074212074279785
      ],
      "min": [
        15.173802375793457,
        -61.797531127929688,
        -3.8074216842651367
      ],
      "type": "VEC3"
    },
    {
      "bufferView": 1,
      "byteOffset": 25392,
      "componentType": 5126,
      "count": 20,
      "max": [
        0,
        1,
        1
      ],
      "min": [
        -1,
        -1,
        -1
      ],
      "type": "VEC3"
    },
    {
      "bufferView": 0,
      "byteOffset": 7800,
      "componentType": 5125,
      "count": 30,
      "max": [
        19
      ],
      "min": [
        0
      ],
      "type": "SCALAR"
    },
    {
      "bufferView": 1,
      "byteOffset": 25632,
      "componentType": 5126,
      "count": 648,
      "max": [
        15.196975708007812,
        -0.66754722595214844,
        3.8015034198760986
      ],
      "min": [
        0.037245750427246094,
        -61.866874694824219,
        -3.8157501220703125
      ],
      "type": "VEC3"
    },
    {
      "bufferView": 1,
      "byteOffset": 33408,
      "componentType": 5126,
      "count": 648,
      "max": [
        1,
        1,
        1
      ],
      "min": [
        -1,
        -1,
        -1
      ],
      "type": "VEC3"
    },
    {
      "bufferView": 0,
      "byteOffset": 7920,
      "componentType": 5125,
      "count": 1200,
      "max": [
        647
      ],
      "min": [
        0
      ],
      "type": "SCALAR"
    },
    {
      "bufferView": 1,
      "byteOffset": 41184,
      "componentType": 5126,
      "count": 92,
      "max": [
        13.707539558410645,
        -0.69142609834671021,
        3.820934534072876
      ],
      "min": [
        -10.74598503112793,
        -61.925460815429688,
        -3.8351287841796875
      ],
      "type": "VEC3"
    },
    {
      "bufferView": 1,
      "byteOffset": 42288,
      "componentType": 5126,
      "count": 92,
      "max": [
        0.14800366759300232,
        0.99865919351577759,
        1
      ],
      "min": [
        -0.31916537880897522,
        -0.0039423052221536636,
        -1
      ],
      "type": "VEC3"
    },
    {
      "bufferView": 0,
      "byteOffset": 12720,
      "componentType": 5125,
      "count": 156,
      "max": [
        91
      ],
      "min": [
        0
      ],
      "type": "SCALAR"
    }
  ],
  "asset": {
    "extras": {
      "author": "tikodev (https://sketchfab.com/tikoavp)",
      "license": "CC-BY-4.0 (http://creativecommons.org/licenses/by/4.0/)",
      "source": "https://sketchfab.com/3d-models/medical-tent-low-poly-style-85b03ca2e5ae4f09ab06d44d3c623b7b",
      "title": "Medical Tent (Low Poly Style)"
    },
    "generator": "Sketchfab-10.38.0",
    "version": "2.0"
  },
  "bufferViews": [
    {
      "buffer": 0,
      "byteLength": 13344,
      "byteOffset": 0,
      "name": "floatBufferViews",
      "target": 34963
    },
    {
      "buffer": 0,
      "byteLength": 43392,
      "byteOffset": 13344,
      "byteStride": 12,
      "name": "floatBufferViews",
      "target": 34962
    }
  ],
  "buffers": [
    {
      "byteLength": 56736,
      "uri": "scene.bin"
    }
  ],
  "materials": [
    {
      "doubleSided": true,
      "emissiveFactor": [
        0,
        0,
        0
      ],
      "name": "White",
      "pbrMetallicRoughness": {
        "baseColorFactor": [
          1,
          1,
          1,
          1
        ],
        "metallicFactor": 0,
        "roughnessFactor": 0.77639320225002106
      }
    },
    {
      "doubleSided": true,
      "emissiveFactor": [
        0,
        0,
        0
      ],
      "name": "Black",
      "pbrMetallicRoughness": {
        "baseColorFactor": [
          0.042027399999999999,
          0.042027399999999999,
          0.042027399999999999,
          1
        ],
        "metallicFactor": 0,
        "roughnessFactor": 0.99060238766824249
      }
    },
    {
      "doubleSided": true,
      "emissiveFactor": [
        0,
        0,
        0
      ],
      "name": "material",
      "pbrMetallicRoughness": {
        "baseColorFactor": [
          0.79910300000000001,
          0.052860600000000001,
          0.052860699999999997,
          1
        ],
        "metallicFactor": 0,
        "roughnessFactor": 0.95270453680560796
      }
    },
    {
      "doubleSided": true,
      "emissiveFactor": [
        0,
        0,
        0
      ],
      "name": "Gray",
      "pbrMetallicRoughness": {
        "baseColorFactor": [
          0.76127199999999995,
          0.76127199999999995,
          0.76127199999999995,
          1
        ],
        "metallicFactor": 0,
        "roughnessFactor": 0.829774405863278
      }
    }
  ],
  "meshes": [
    {
      "name": "Medical Tent_White_0",
      "primitives": [
        {
          "attributes": {
            "NORMAL": 1,
            "POSITION": 0
          },
          "indices": 2,
          "material": 0,
          "mode": 4
        }
      ]
    },
    {
      "name": "Medical Tent_Black_0",
      "primitives": [
        {
          "attributes": {
            "NORMAL": 4,
            "POSITION": 3
          },
          "indices": 5,
          "material": 1,
          "mode": 4
        }
      ]
    },
    {
      "name": "Medical Tent_Red_0",
      "primitives": [
        {
          "attributes": {
            "NORMAL": 7,
            "POSITION": 6
          },
          "indices": 8,
          "material": 2,
          "mode": 4
        }
      ]
    },
    {
      "name": "Medical Tent_Gray_0",
      "primitives": [
        {
          "attributes": {
            "NORMAL": 10,
            "POSITION": 9
          },
          "indices": 11,
          "material": 3,
          "mode": 4
        }
      ]
    }
  ],
  "nodes": [
    {
      "children": [
        1
      ],
      "name": "RootNode (gltf orientation matrix)",
      "rotation": [
        -0.70710678118654746,
        -0,
        -0,
        0.70710678118654757
      ]
    },
    {
      "children": [
        2
      ],
      "name": "RootNode (model correction matrix)"
    },
    {
      "children": [
        3
      ],
      "matrix": [
        1,
        0,
        0,
        0,
        0,
        0,
        1,
        0,
        0,
        -1,
        0,
        0,
        0,
        0,
        0,
        1
      ],
      "name": "19f07539dd964aa9b480d87e684c4354.fbx"
    },
    {
      "children": [
        4
      ],
      "name": "RootNode"
    },
    {
      "children": [
        5,
        6,
        7,
        8
      ],
      "matrix": [
        1.131125036708321e-06,
        -14.982205390930137,
        1.0645497206191248e-13,
        0,
        1.1311250375400004e-06,
        -2.3287025138543356e-14,
        -14.982205390930137,
        0,
        95.228698730468224,
        7.1895667303823617e-06,
        7.189566725096107e-06,
        0,
        0,
        232.7064208984375,
        -468.76864624023438,
        1
      ],
      "name": "Medical Tent"
    },
    {
      "mesh": 0,
      "name": "Medical Tent_White_0"
    },
    {
      "mesh": 1,
      "name": "Medical Tent_Black_0"
    },
    {
      "mesh": 2,
      "name": "Medical Tent_Red_0"
    },
    {
      "mesh": 3,
      "name": "Medical Tent_Gray_0"
    }
  ],
  "scene": 0,
  "scenes": [
    {
      "name": "OSG_Scene",
      "nodes": [
        0
      ]
    }
  ]
}

